<svg xmlns="http://www.w3.org/2000/svg" version="1.1" xmlns:xlink="http://www.w3.org/1999/xlink" xmlns:svgjs="http://svgjs.dev/svgjs" width="100%" height="100%" viewBox="0 0 1000 600"><rect width="1000" height="600" x="0" y="0" fill="#2b3252"/><g><rect width="333.3333333333333" height="333.3333333333333" rx="13.333333333333334" ry="13.333333333333334" y="134.25497811407968" fill="#fad744" transform="matrix(1.1157452189255013,0,0,1.1157452189255013,0,-35.75188147865521)" x="112.03274536132812"/><path d="M311.70536519272804 375.92164398603234L244.83036721739367 375.92164398603234Q243.758938678403 374.8502154470417 242.92560537029917 373.12402502311227Q242.06251015833445 371.4275965030437 242.06251015833445 369.0764060980364L242.06251015833445 369.0764060980364Q242.06251015833445 367.14188234708104 242.47917681238638 365.32640621156906Q242.92560537029917 363.48116817219625 243.758938678403 361.3383110942149L243.758938678403 361.3383110942149L294.97917522292926 241.5764099581466L255.12798595324847 241.5764099581466Q252.33036699032837 241.5764099581466 249.77084325829512 241.66569566972916Q247.21131952626183 241.78474328517257 245.6934624293584 242.2014099392245L245.6934624293584 242.2014099392245L245.6934624293584 229.5526007983624Q245.6934624293584 225.92164852733848 249.35417660424318 225.92164852733848L249.35417660424318 225.92164852733848L313.4017937127966 225.92164852733848Q314.2648889247613 226.99307706632914 314.7113174826741 228.27283893234576Q315.127984136726 229.5526007983624 315.127984136726 231.69545787634374L315.127984136726 231.69545787634374Q315.127984136726 235.35617205122855 313.4017937127966 239.43355288016525L313.4017937127966 239.43355288016525L261.3482238601665 360.26688255522424L302.68750832288987 360.26688255522424Q306.34822249777466 360.26688255522424 309.56250811474666 359.9692635166157Q312.7767937317187 359.6418825741463 315.3363174637519 358.7787873621816L315.3363174637519 358.7787873621816L315.3363174637519 372.49902504203436Q315.3363174637519 373.987120235077 314.59226986723064 374.9692630624851Q313.84822227070936 375.92164398603234 311.70536519272804 375.92164398603234L311.70536519272804 375.92164398603234Z " fill="#2b3252" transform="matrix(1.1157452189255013,0,0,1.1157452189255013,0,-35.75188147865521)"/><path d="M581.2285951365757 344.71841548246806L530.7871103207493 344.71841548246806Q529.9789690419911 343.91027420370983 529.3504147140679 342.60826881015487Q528.6994120172906 341.32871178545435 528.6994120172906 339.55529064595714L528.6994120172906 339.55529064595714Q528.6994120172906 338.09614667042143 529.0136891812521 336.7267961703033Q529.3504147140679 335.33499730133076 529.9789690419911 333.7187147438143L529.9789690419911 333.7187147438143L568.6126118404055 243.38647847372738L538.5542459443701 243.38647847372738Q536.444099272057 243.38647847372738 534.5135395505789 243.45382358029053Q532.582979829101 243.54361705570813 531.4381130175268 243.85789421966967L531.4381130175268 243.85789421966967L531.4381130175268 234.31733745655163Q531.4381130175268 231.5786364563154 534.1992623866174 231.5786364563154L534.1992623866174 231.5786364563154L582.5081521612763 231.5786364563154Q583.1591548580536 232.38677773507362 583.4958803908696 233.35205759581262Q583.8101575548312 234.31733745655163 583.8101575548312 235.93362001406808L583.8101575548312 235.93362001406808Q583.8101575548312 238.69476938315873 582.5081521612763 241.7701959162109L582.5081521612763 241.7701959162109L543.2459550349388 332.9105734650561L574.4267393736939 332.9105734650561Q577.1878887427845 332.9105734650561 579.6123125790592 332.6860897765121Q582.036736415334 332.4391577191138 583.9672961368119 331.78815502233635L583.9672961368119 331.78815502233635L583.9672961368119 342.1368530642126Q583.9672961368119 343.25927150693235 583.4060869154521 344.00006767912737Q582.8448776940921 344.71841548246806 581.2285951365757 344.71841548246806L581.2285951365757 344.71841548246806ZM595.2812740394272 344.71841548246806L595.2812740394272 344.71841548246806L595.2812740394272 269.8755537219139Q595.2812740394272 266.8225755577161 596.4261408510014 265.6103636395788Q597.5485592937212 264.3981517214414 600.4668472447926 264.1512196640431Q603.3626868270095 263.90428760664474 608.7053986143557 263.90428760664474L608.7053986143557 263.90428760664474L608.7053986143557 342.1368530642126Q608.7053986143557 343.41641008891315 608.1441893929957 343.91027420370983Q607.5605318027815 344.4041383185065 604.8218308025453 344.5612769004873Q602.083129802309 344.71841548246806 595.2812740394272 344.71841548246806ZM601.5892656875124 252.74744828601024L601.5892656875124 252.74744828601024Q598.5138391544601 252.59030970402947 596.7404180149629 250.41281792515312Q594.9669968754656 248.23532614627678 594.9669968754656 242.57833719496912L594.9669968754656 242.57833719496912Q595.1241354574464 238.20090526836202 596.8975565969437 235.529549374689Q598.6709777364409 232.88064184987033 602.5545455482513 232.88064184987033L602.5545455482513 232.88064184987033Q606.2809747780809 232.88064184987033 607.7401187536166 234.9683401533291Q609.176814360298 237.07848682564224 609.0196757783172 242.24161166215322L609.0196757783172 242.24161166215322Q609.0196757783172 247.0904593347026 607.1564611634024 249.9189538103564Q605.315694917342 252.74744828601024 601.5892656875124 252.74744828601024ZM628.5722050504955 375.9216481900776L628.5722050504955 375.9216481900776Q621.4785204925066 375.9216481900776 618.4704390660177 374.125778681726Q615.484806008383 372.3523575422288 615.484806008383 369.61365654199255L615.484806008383 369.61365654199255Q615.484806008383 367.6606484516601 615.9786701231798 365.57295014820136Q616.4500858691221 363.4628034758882 617.4378140987154 362.18324645118764L617.4378140987154 362.18324645118764Q619.0540966562319 363.3056648939074 621.9499362384489 364.02401269724805Q624.8682241895203 364.76480886944313 627.6069251897566 364.76480886944313L627.6069251897566 364.76480886944313Q631.490493001567 364.76480886944313 634.5659195346191 361.0383796396135Q637.6413460676713 357.3343987786383 639.4147672071686 347.29997790072355L639.4147672071686 347.29997790072355L620.0193765169709 267.4511298856392Q619.5255124021742 265.67770874614195 619.9295830415533 264.9593609428013Q620.3336536809325 264.21856477060624 623.1621481565862 264.0614261886255Q625.9906426322401 263.90428760664474 632.7924983951218 263.90428760664474L632.7924983951218 263.90428760664474L641.5024655106273 302.53793040505917Q642.4901937402207 307.3867780776086 643.298335018979 312.3927643321387Q644.1064762977371 317.3987505866689 644.5778920436794 321.6863890378584Q645.0717561584761 325.9740274890479 645.4758267978552 328.5555899073034Q645.8798974372344 331.1371523255589 645.8798974372344 331.1371523255589L645.8798974372344 331.1371523255589Q645.8798974372344 331.1371523255589 646.1268294946327 328.5555899073034Q646.3513131831767 325.9740274890479 646.9349707733909 321.6863890378584Q647.4961799947508 317.3987505866689 648.2145277980915 312.3029708567211Q648.9553239702865 307.2296394956278 649.7634652490448 302.3807918230784L649.7634652490448 302.3807918230784L657.0367367578689 267.78785541845514Q657.3510139218304 265.67770874614195 658.0020166186079 264.9593609428013Q658.6530193153853 264.21856477060624 661.5488588976023 264.0614261886255Q664.4671468486738 263.90428760664474 671.0894156607203 263.90428760664474L671.0894156607203 263.90428760664474L651.200160855726 349.07339904022075Q648.7757370194514 359.2649585001162 645.7901039618168 365.1688795088222Q642.8044709041822 371.0728005175282 638.6739710349734 373.4972243538029Q634.5659195346191 375.9216481900776 628.5722050504955 375.9216481900776ZM700.4967788599783 346.3346980399845L700.4967788599783 346.3346980399845Q695.9846567202449 346.3346980399845 691.8541568510361 345.6163502366439Q687.7461053506818 344.8755540644488 684.5135402356487 342.3837851216109Q681.2809751206158 339.86956780991864 679.3279670302834 335.02072013736927Q677.3974073088054 330.17187246481984 677.3974073088054 321.776182513276L677.3974073088054 321.776182513276Q677.3974073088054 313.35804419287774 679.1708284483027 308.10512588094923Q680.9442495878 302.8522075690207 684.0196761208521 300.0237130933669Q687.0951026539043 297.19521861771307 690.9786704657147 296.2299387569741Q694.8397899086707 295.26465889623506 698.8804963024618 295.26465889623506L698.8804963024618 295.26465889623506Q701.4845070895717 295.26465889623506 704.9415558931486 295.73607464217736Q708.4210530655798 296.2299387569741 710.8454769018546 297.3523571996938L710.8454769018546 297.3523571996938Q710.8454769018546 297.3523571996938 710.8454769018546 295.1075203142543Q710.8454769018546 292.8402350599604 710.8454769018546 289.8546020023258Q710.8454769018546 286.8465205758368 710.8454769018546 284.60168369039724L710.8454769018546 284.60168369039724Q710.8454769018546 280.71811587858684 709.6332649837173 278.6977626816913Q708.4210530655798 276.6774094847957 706.2435612867034 275.7794747306199Q704.0660695078271 274.90398834529844 700.8335043927942 274.90398834529844L700.8335043927942 274.90398834529844Q694.5255127447091 274.90398834529844 688.7113852114207 276.0264067880182Q682.8972576781323 277.148825230738 679.3279670302834 278.6079692062737L679.3279670302834 278.6079692062737Q678.2055485875637 276.6774094847957 677.8688230547477 274.6570562879001Q677.5545458907862 272.6367030910045 677.5545458907862 271.02042053348805L677.5545458907862 271.02042053348805Q677.5545458907862 269.8755537219139 677.9586165301654 268.59599669721337Q678.3626871695444 267.2939913036584 679.3279670302834 266.642988606881L679.3279670302834 266.642988606881Q681.4381137025966 265.3634315821804 688.0603825146433 263.81449413122715Q694.6826513266899 262.2880050491283 703.9089309258463 262.2880050491283L703.9089309258463 262.2880050491283Q714.4147675497034 262.2880050491283 719.1738217468353 266.642988606881Q723.932875943967 271.02042053348805 723.932875943967 281.99767290328737L723.932875943967 281.99767290328737L723.932875943967 290.57294980566644Q723.932875943967 299.77678103596855 723.8655308374039 309.0704057416882Q723.7757373619863 318.3640304474079 723.6185987800055 326.5352367104078Q723.4614601980247 334.7064429734077 722.967596083228 340.83484767065767L722.967596083228 340.83484767065767Q719.7350309681951 342.78785576099006 714.0780420168875 344.5612769004873Q708.4210530655798 346.3346980399845 700.4967788599783 346.3346980399845ZM701.7987842535332 335.33499730133076L701.7987842535332 335.33499730133076Q704.3803466717886 335.33499730133076 706.8047705080634 334.5268560225726Q709.2291943443381 333.7187147438143 710.1944742050771 332.5962963010945L710.1944742050771 332.5962963010945Q710.5311997378931 330.0147338828391 710.5985448444562 325.4801633742512Q710.6883383198738 320.9680412345177 710.7781317952914 315.9396066111332Q710.8454769018546 310.933620356603 710.8454769018546 306.5786367988503L710.8454769018546 306.5786367988503Q709.2291943443381 305.7704955200921 707.0517025654617 305.43376998727615Q704.8742107865853 305.11949282331466 703.257928229069 305.11949282331466L703.257928229069 305.11949282331466Q700.6763658108134 305.11949282331466 698.4764256630826 305.6807020446745Q696.2989338842063 306.2419112660344 694.6826513266899 307.9479872989684Q693.0663687691734 309.6540633319025 692.1010889084343 312.88662844693545Q691.1358090476954 316.11919356196836 691.1358090476954 321.43945698046L691.1358090476954 321.43945698046Q691.1358090476954 325.81688890706715 691.8541568510361 328.5555899073034Q692.5949530232311 331.2942909075396 694.0316486299124 332.8432283584929Q695.4907926054482 334.3697174405918 697.4438006957805 334.86358155538846Q699.3743604172586 335.33499730133076 701.7987842535332 335.33499730133076ZM761.1073747668459 346.3346980399845L761.1073747668459 346.3346980399845Q755.7871113483541 346.3346980399845 751.0954022577855 345.12248612184715Q746.4036931672168 343.91027420370983 742.6997123062416 339.95936128533623Q738.9732830764119 335.98599999810824 736.9529298795164 328.1515192679243Q734.9325766826207 320.3170385377403 734.9325766826207 307.2296394956278L734.9325766826207 307.2296394956278Q734.9325766826207 291.2239525024439 738.2549352730713 281.27932509994673Q741.5548454946675 271.3346976974496 747.1444893394118 266.8225755577161Q752.711684815302 262.2880050491283 759.6706791601645 262.2880050491283L759.6706791601645 262.2880050491283Q763.3746600211398 262.2880050491283 766.2929479722111 263.0961463278865Q769.1887875544281 263.90428760664474 771.1417956447606 265.5205701641612L771.1417956447606 265.5205701641612L771.1417956447606 231.89291362027694Q771.1417956447606 228.83993545607916 772.1968689809171 227.62772353794182Q773.2294939482193 226.41551161980445 776.1477818992907 226.1685795624061Q779.066069850362 225.92164750500777 784.229194686873 225.92164750500777L784.229194686873 225.92164750500777L784.229194686873 341.4858503674351Q780.3456268750626 343.41641008891315 774.4417058663566 344.8755540644488Q768.560233226505 346.3346980399845 761.1073747668459 346.3346980399845ZM761.6012388816425 334.5268560225726L761.6012388816425 334.5268560225726Q764.3399398818788 334.5268560225726 766.7643637181534 333.96564680121264Q769.1887875544281 333.4044375798528 771.1417956447606 332.10243218629785L771.1417956447606 332.10243218629785L771.1417956447606 275.8692682060375Q769.6826516692248 274.5672628124825 767.9765756362907 274.1631921731034Q766.2929479722111 273.7591215337243 763.7113855539557 273.7591215337243L763.7113855539557 273.7591215337243Q761.1073747668459 273.7591215337243 758.5258123485903 275.06112692727925Q755.9442499303349 276.34068395197977 753.8341032580217 279.820181124411Q751.7464049545629 283.29967829684233 750.6015381429888 289.5178764695098Q749.4791197002689 295.73607464217736 749.4791197002689 305.7704955200921L749.4791197002689 305.7704955200921Q749.4791197002689 314.9743267503942 750.2872609790272 320.6313157017018Q751.0954022577855 326.28830465300945 752.711684815302 329.273937710644Q754.3279673728184 332.28201913713303 756.5054591516947 333.4044375798528Q758.6829509305711 334.5268560225726 761.6012388816425 334.5268560225726Z " fill="#fad744" transform="matrix(1.1157452189255013,0,0,1.1157452189255013,0,-35.75188147865521)"/></g></svg>